<?xml version="1.0" encoding="utf-8" standalone="no"?>
<!-- Generator: Adobe Illustrator 17.0.0, SVG Export Plug-In . SVG Version: 6.00 Build 0)  -->
<!DOCTYPE svg PUBLIC "-//W3C//DTD SVG 1.1//EN" "http://www.w3.org/Graphics/SVG/1.1/DTD/svg11.dtd">
<svg version="1.1" xmlns="http://www.w3.org/2000/svg" xmlns:xlink="http://www.w3.org/1999/xlink">
  
    <!-- LOGO -->
    <g id="icon-logo">
      <path class="logo-st0" style="fill: #797D82;" d="M11.3,9.6V8.9c0-3.1-1-4.4-3.1-4.4c-2.5,0-3.3,1.4-3.3,6v6.3c0,2.5,0.2,3.6,0.6,4.5c0.5,0.9,1.5,1.4,2.7,1.4
        c2.1,0,3.1-1.4,3.1-4.6v-0.7h4.9v1c0,3.1-0.5,5-1.8,6.4c-1.4,1.6-3.5,2.4-6.2,2.4c-2.9,0-5.2-0.9-6.5-2.7C0.4,22.9,0,21,0,17.5V9.9
        c0-3.6,0.4-5.5,1.6-7.1C2.9,0.9,5.2,0,8.1,0c2.7,0,4.8,0.8,6.2,2.4c1.3,1.4,1.8,3.2,1.8,6.3v0.9H11.3z"/>
      <path class="logo-st0" style="fill: #797D82;" d="M29.3,26.7c-0.3-0.7-0.4-1.8-0.4-3.1c-2.3,2.6-3.8,3.4-5.8,3.4c-3.3,0-5.3-2.6-5.3-7c0-3.3,1.2-5.3,4.2-7.2
        c1.3-0.8,2.5-1.4,6.9-3.3V8.2c0-2.7-0.7-3.7-2.6-3.7c-1.8,0-2.7,1.1-2.9,3.7h-5.1C18.8,3,21.8,0.2,27,0.2c2.4,0,4.1,0.6,5.3,2
        c1.1,1.4,1.4,2.6,1.4,5.8v11.7c0,4,0.1,5.2,0.6,7.1H29.3z M28.9,13.2c-4.3,2.3-6,4.2-6,6.6c0,1.7,1,3,2.5,3c1.4,0,2.6-0.8,3.6-2.4
        V13.2z"/>
      <path class="logo-st0" style="fill: #797D82;" d="M47.6,8.3c-1-2.7-2.1-3.8-4-3.8C42,4.5,41,5.4,41,6.8c0,1.4,0.7,2.2,4.4,4.2c2.9,1.6,4.2,2.5,5.3,3.6
        c1.1,1.2,1.8,3,1.8,5c0,4.6-3.2,7.8-8,7.8c-4.4,0-7.2-2.3-8.9-7.4l4.5-1.6c1,3.2,2.3,4.5,4.3,4.5c1.6,0,2.8-1.1,2.8-2.6
        c0-1.5-0.8-2.4-3.7-4c-3.6-2-4.5-2.7-5.7-3.9C36.7,11,36,9.2,36,7.3C36,3.1,39.2,0,43.6,0c4.1,0,6.8,2,8.4,6.3L47.6,8.3z"/>
      <path class="logo-st0" style="fill: #797D82;" d="M58.9,0.5v1.4c2.1-2.1,3.9-1.8,5.7-1.8c1.9,0,3.3,0.9,4.2,2.7c0.8,1.8,1,3.6,1,7.6v5.7c0,4-0.3,5.9-1,7.6
        c-0.8,1.7-2.5,2.8-4.3,3c-2,0.1-3.8,0.1-5.6-1.4v8L54,35.7V0.5H58.9z M58.9,21.5c1.3,0.9,2.3,1.3,3.4,1.3c1,0,1.9-0.5,2.2-1.4
        c0.4-0.9,0.5-1.6,0.5-4.3v-6.3c0-2.7-0.1-4-0.5-4.9c-0.4-0.8-1.3-1.4-2.2-1.4c-1.1,0-2.1,0.4-3.4,1.3V21.5z"/>
      <path class="logo-st1" style="fill: #008AB1;" d="M76.9,15.1v1.7c0,4.6,0.8,6,3.3,6c1.5,0,2.5-0.7,2.9-2.2c0.2-0.6,0.2-1.1,0.2-2.9h4.9c-0.1,3.6-0.2,4.7-1,6.1
        c-1.3,2.3-3.7,3.5-7,3.5c-3,0-5.2-0.9-6.5-2.7c-1.1-1.6-1.6-3.6-1.6-7.1V9.6c0-4.2,0.5-5.9,2.1-7.5C75.5,0.7,77.5,0,80,0
        c2.7,0,4.8,0.8,6.1,2.4c1.5,1.7,2,3.6,2,7.7v4.9H76.9z M83.2,8.7c0-3.1-0.9-4.4-3.2-4.4c-2.2,0-3.2,1.3-3.2,4.4v2h6.4V8.7z"/>
      <path class="logo-st1" style="fill: #008AB1;" d="M101.5,9.6V8.9c0-3.1-1-4.4-3.1-4.4c-2.5,0-3.3,1.4-3.3,6v6.3c0,2.5,0.2,3.6,0.6,4.5c0.5,0.9,1.5,1.4,2.7,1.4
        c2.1,0,3.1-1.4,3.1-4.6v-0.7h4.9v1c0,3.1-0.5,5-1.8,6.4c-1.4,1.6-3.5,2.4-6.2,2.4c-2.9,0-5.2-0.9-6.5-2.7c-1.2-1.6-1.6-3.5-1.6-7.1
        V9.9c0-3.6,0.4-5.5,1.6-7.1C93.1,0.9,95.4,0,98.4,0c2.7,0,4.8,0.8,6.2,2.4c1.3,1.4,1.8,3.2,1.8,6.3v0.9H101.5z"/>
      <path class="logo-st1" style="fill: #008AB1;" d="M124,17.7c0,4.1-0.5,5.9-2,7.5c-1.4,1.4-3.4,2.1-5.9,2.1c-2.5,0-4.5-0.7-6-2.1c-1.5-1.6-2-3.4-2-7.5V9.6
        c0-4.1,0.5-5.9,2-7.5c1.4-1.4,3.4-2.1,6-2.1c2.5,0,4.5,0.7,5.9,2.1c1.6,1.6,2,3.4,2,7.5V17.7z M112.9,18c0,3.3,0.9,4.8,3.1,4.8
        c2.2,0,3.1-1.5,3.1-4.8V9.3c0-3.4-0.9-4.8-3.1-4.8c-2.1,0-3.1,1.5-3.1,4.8V18z"/>
    </g>
  
</svg>
